<mxfile host="app.diagrams.net" agent="Mozilla/5.0 (Windows NT 10.0; Win64; x64) AppleWebKit/537.36 (KHTML, like Gecko) Chrome/136.0.0.0 Safari/537.36" version="27.0.3">
  <diagram name="Página-1" id="tM3ftosBq5wTvWjN4mbQ">
    <mxGraphModel dx="1226" dy="715" grid="1" gridSize="10" guides="1" tooltips="1" connect="1" arrows="1" fold="1" page="1" pageScale="1" pageWidth="827" pageHeight="1169" math="0" shadow="0">
      <root>
        <mxCell id="0" />
        <mxCell id="1" parent="0" />
        <mxCell id="7ZSRkaOjpOQk4Y71W81P-1" value="&lt;span style=&quot;font-size: 19px;&quot;&gt;Início&lt;/span&gt;" style="ellipse;whiteSpace=wrap;html=1;" parent="1" vertex="1">
          <mxGeometry x="400" y="160" width="50" height="50" as="geometry" />
        </mxCell>
        <mxCell id="7ZSRkaOjpOQk4Y71W81P-2" value="&quot;BEM VINDO AO MUTARE&lt;div&gt;&lt;br&gt;&lt;/div&gt;&lt;div&gt;1. Menu Hábitos&lt;div&gt;2.Mascote&lt;/div&gt;&lt;div&gt;3.Configurações&lt;/div&gt;&lt;div&gt;4. Fechar Programa&quot;&lt;/div&gt;&lt;/div&gt;" style="shape=document;whiteSpace=wrap;html=1;boundedLbl=1;" parent="1" vertex="1">
          <mxGeometry x="495" y="130" width="150" height="150" as="geometry" />
        </mxCell>
        <mxCell id="7ZSRkaOjpOQk4Y71W81P-9" style="edgeStyle=orthogonalEdgeStyle;rounded=0;orthogonalLoop=1;jettySize=auto;html=1;exitX=0.5;exitY=1;exitDx=0;exitDy=0;exitPerimeter=0;" parent="1" source="7ZSRkaOjpOQk4Y71W81P-4" edge="1">
          <mxGeometry relative="1" as="geometry">
            <mxPoint x="570" y="400" as="targetPoint" />
          </mxGeometry>
        </mxCell>
        <mxCell id="7ZSRkaOjpOQk4Y71W81P-12" style="edgeStyle=orthogonalEdgeStyle;rounded=0;orthogonalLoop=1;jettySize=auto;html=1;exitX=1;exitY=0.5;exitDx=0;exitDy=0;entryX=0;entryY=0.5;entryDx=0;entryDy=0;" parent="1" source="7ZSRkaOjpOQk4Y71W81P-10" target="7ZSRkaOjpOQk4Y71W81P-11" edge="1">
          <mxGeometry relative="1" as="geometry" />
        </mxCell>
        <mxCell id="7ZSRkaOjpOQk4Y71W81P-19" style="edgeStyle=orthogonalEdgeStyle;rounded=0;orthogonalLoop=1;jettySize=auto;html=1;exitX=0;exitY=0.5;exitDx=0;exitDy=0;" parent="1" source="7ZSRkaOjpOQk4Y71W81P-10" target="7ZSRkaOjpOQk4Y71W81P-15" edge="1">
          <mxGeometry relative="1" as="geometry">
            <Array as="points">
              <mxPoint x="430" y="450" />
            </Array>
          </mxGeometry>
        </mxCell>
        <mxCell id="7ZSRkaOjpOQk4Y71W81P-10" value="&amp;nbsp;Escolha igual a 1?" style="rhombus;whiteSpace=wrap;html=1;" parent="1" vertex="1">
          <mxGeometry x="520" y="400" width="100.94" height="100" as="geometry" />
        </mxCell>
        <mxCell id="7ZSRkaOjpOQk4Y71W81P-11" value="Menu Hábitos" style="ellipse;whiteSpace=wrap;html=1;aspect=fixed;" parent="1" vertex="1">
          <mxGeometry x="650" y="420" width="60" height="60" as="geometry" />
        </mxCell>
        <mxCell id="7ZSRkaOjpOQk4Y71W81P-14" style="edgeStyle=orthogonalEdgeStyle;rounded=0;orthogonalLoop=1;jettySize=auto;html=1;exitX=1;exitY=0.5;exitDx=0;exitDy=0;entryX=0;entryY=0.5;entryDx=0;entryDy=0;" parent="1" source="7ZSRkaOjpOQk4Y71W81P-15" target="7ZSRkaOjpOQk4Y71W81P-16" edge="1">
          <mxGeometry relative="1" as="geometry" />
        </mxCell>
        <mxCell id="7ZSRkaOjpOQk4Y71W81P-24" style="edgeStyle=orthogonalEdgeStyle;rounded=0;orthogonalLoop=1;jettySize=auto;html=1;exitX=0;exitY=0.5;exitDx=0;exitDy=0;" parent="1" source="7ZSRkaOjpOQk4Y71W81P-15" target="7ZSRkaOjpOQk4Y71W81P-21" edge="1">
          <mxGeometry relative="1" as="geometry" />
        </mxCell>
        <mxCell id="7ZSRkaOjpOQk4Y71W81P-15" value="Escolha igual a 2?" style="rhombus;whiteSpace=wrap;html=1;" parent="1" vertex="1">
          <mxGeometry x="380" y="500" width="100" height="100" as="geometry" />
        </mxCell>
        <mxCell id="7ZSRkaOjpOQk4Y71W81P-16" value="Mascote" style="ellipse;whiteSpace=wrap;html=1;aspect=fixed;" parent="1" vertex="1">
          <mxGeometry x="514" y="520" width="60" height="60" as="geometry" />
        </mxCell>
        <mxCell id="7ZSRkaOjpOQk4Y71W81P-20" style="edgeStyle=orthogonalEdgeStyle;rounded=0;orthogonalLoop=1;jettySize=auto;html=1;exitX=1;exitY=0.5;exitDx=0;exitDy=0;entryX=0;entryY=0.5;entryDx=0;entryDy=0;" parent="1" source="7ZSRkaOjpOQk4Y71W81P-21" target="7ZSRkaOjpOQk4Y71W81P-22" edge="1">
          <mxGeometry relative="1" as="geometry" />
        </mxCell>
        <mxCell id="7ZSRkaOjpOQk4Y71W81P-28" style="edgeStyle=orthogonalEdgeStyle;rounded=0;orthogonalLoop=1;jettySize=auto;html=1;exitX=0;exitY=0.5;exitDx=0;exitDy=0;entryX=0.5;entryY=0;entryDx=0;entryDy=0;" parent="1" source="7ZSRkaOjpOQk4Y71W81P-21" target="7ZSRkaOjpOQk4Y71W81P-26" edge="1">
          <mxGeometry relative="1" as="geometry" />
        </mxCell>
        <mxCell id="7ZSRkaOjpOQk4Y71W81P-21" value="Escolha igual a 3?" style="rhombus;whiteSpace=wrap;html=1;" parent="1" vertex="1">
          <mxGeometry x="309.69" y="598" width="91.87" height="100" as="geometry" />
        </mxCell>
        <mxCell id="7ZSRkaOjpOQk4Y71W81P-22" value="Config." style="ellipse;whiteSpace=wrap;html=1;aspect=fixed;" parent="1" vertex="1">
          <mxGeometry x="430" y="618" width="60" height="60" as="geometry" />
        </mxCell>
        <mxCell id="7ZSRkaOjpOQk4Y71W81P-25" style="edgeStyle=orthogonalEdgeStyle;rounded=0;orthogonalLoop=1;jettySize=auto;html=1;exitX=1;exitY=0.5;exitDx=0;exitDy=0;entryX=0;entryY=0.5;entryDx=0;entryDy=0;" parent="1" source="7ZSRkaOjpOQk4Y71W81P-26" target="7ZSRkaOjpOQk4Y71W81P-27" edge="1">
          <mxGeometry relative="1" as="geometry" />
        </mxCell>
        <mxCell id="7ZSRkaOjpOQk4Y71W81P-26" value="Escolha igual a 4?" style="rhombus;whiteSpace=wrap;html=1;" parent="1" vertex="1">
          <mxGeometry x="240.31" y="710" width="101.87" height="100" as="geometry" />
        </mxCell>
        <mxCell id="7ZSRkaOjpOQk4Y71W81P-27" value="&lt;font style=&quot;font-size: 19px;&quot;&gt;Fim&lt;/font&gt;" style="ellipse;whiteSpace=wrap;html=1;aspect=fixed;" parent="1" vertex="1">
          <mxGeometry x="370.31" y="730" width="60" height="60" as="geometry" />
        </mxCell>
        <mxCell id="7ZSRkaOjpOQk4Y71W81P-29" style="edgeStyle=orthogonalEdgeStyle;rounded=0;orthogonalLoop=1;jettySize=auto;html=1;exitX=1;exitY=0.5;exitDx=0;exitDy=0;entryX=0.008;entryY=0.389;entryDx=0;entryDy=0;entryPerimeter=0;" parent="1" source="7ZSRkaOjpOQk4Y71W81P-1" target="7ZSRkaOjpOQk4Y71W81P-2" edge="1">
          <mxGeometry relative="1" as="geometry" />
        </mxCell>
        <mxCell id="CyyOgFIPkW3TxfJR1gr0-9" value="" style="edgeStyle=orthogonalEdgeStyle;rounded=0;orthogonalLoop=1;jettySize=auto;html=1;" parent="1" source="7ZSRkaOjpOQk4Y71W81P-30" target="CyyOgFIPkW3TxfJR1gr0-8" edge="1">
          <mxGeometry relative="1" as="geometry" />
        </mxCell>
        <mxCell id="7ZSRkaOjpOQk4Y71W81P-30" value="&lt;div&gt;&lt;br&gt;&lt;/div&gt;&lt;div&gt;&lt;font style=&quot;font-size: 14px;&quot;&gt;&quot;Dígito inválido. Digite novamente.&quot;&lt;/font&gt;&lt;/div&gt;" style="shape=document;whiteSpace=wrap;html=1;boundedLbl=1;" parent="1" vertex="1">
          <mxGeometry x="90" y="790" width="130" height="80" as="geometry" />
        </mxCell>
        <mxCell id="CyyOgFIPkW3TxfJR1gr0-4" value="" style="endArrow=classic;html=1;rounded=0;exitX=0;exitY=0.5;exitDx=0;exitDy=0;entryX=0.5;entryY=0;entryDx=0;entryDy=0;" parent="1" source="7ZSRkaOjpOQk4Y71W81P-26" target="7ZSRkaOjpOQk4Y71W81P-30" edge="1">
          <mxGeometry width="50" height="50" relative="1" as="geometry">
            <mxPoint x="230.31" y="830" as="sourcePoint" />
            <mxPoint x="110.31" y="790" as="targetPoint" />
            <Array as="points">
              <mxPoint x="155" y="760" />
            </Array>
          </mxGeometry>
        </mxCell>
        <mxCell id="CyyOgFIPkW3TxfJR1gr0-5" value="" style="group" parent="1" vertex="1" connectable="0">
          <mxGeometry x="490" y="290" width="157.5" height="60" as="geometry" />
        </mxCell>
        <mxCell id="_0cxiAFkDxXxnWQI2h8j-1" value="" style="group" parent="CyyOgFIPkW3TxfJR1gr0-5" vertex="1" connectable="0">
          <mxGeometry width="157.5" height="60" as="geometry" />
        </mxCell>
        <mxCell id="_0cxiAFkDxXxnWQI2h8j-2" value="" style="group" parent="_0cxiAFkDxXxnWQI2h8j-1" vertex="1" connectable="0">
          <mxGeometry width="157.5" height="60" as="geometry" />
        </mxCell>
        <mxCell id="7ZSRkaOjpOQk4Y71W81P-4" value="" style="verticalLabelPosition=bottom;verticalAlign=top;html=1;shape=card;whiteSpace=wrap;size=20;arcSize=12;container=1;" parent="_0cxiAFkDxXxnWQI2h8j-2" vertex="1">
          <mxGeometry width="155" height="60" as="geometry" />
        </mxCell>
        <mxCell id="7ZSRkaOjpOQk4Y71W81P-5" value="&lt;font style=&quot;font-size: 16px;&quot;&gt;Dígito de Escolha&lt;/font&gt;" style="text;html=1;align=center;verticalAlign=middle;resizable=0;points=[];autosize=1;strokeColor=none;fillColor=none;" parent="_0cxiAFkDxXxnWQI2h8j-2" vertex="1">
          <mxGeometry x="7.5" y="15" width="150" height="30" as="geometry" />
        </mxCell>
        <mxCell id="CyyOgFIPkW3TxfJR1gr0-6" value="" style="endArrow=classic;html=1;rounded=0;entryX=0.5;entryY=0;entryDx=0;entryDy=0;entryPerimeter=0;exitX=0.468;exitY=0.879;exitDx=0;exitDy=0;exitPerimeter=0;" parent="1" source="7ZSRkaOjpOQk4Y71W81P-2" target="7ZSRkaOjpOQk4Y71W81P-4" edge="1">
          <mxGeometry width="50" height="50" relative="1" as="geometry">
            <mxPoint x="440" y="240" as="sourcePoint" />
            <mxPoint x="490" y="190" as="targetPoint" />
          </mxGeometry>
        </mxCell>
        <mxCell id="CyyOgFIPkW3TxfJR1gr0-8" value="Menu Pricnipal" style="ellipse;whiteSpace=wrap;html=1;" parent="1" vertex="1">
          <mxGeometry x="115" y="900" width="80" height="80" as="geometry" />
        </mxCell>
        <mxCell id="_0cxiAFkDxXxnWQI2h8j-5" value="V" style="text;html=1;align=center;verticalAlign=middle;resizable=0;points=[];autosize=1;strokeColor=none;fillColor=none;" parent="1" vertex="1">
          <mxGeometry x="335.31" y="738" width="30" height="30" as="geometry" />
        </mxCell>
        <mxCell id="_0cxiAFkDxXxnWQI2h8j-6" value="F" style="text;html=1;align=center;verticalAlign=middle;resizable=0;points=[];autosize=1;strokeColor=none;fillColor=none;" parent="1" vertex="1">
          <mxGeometry x="205.31" y="738" width="30" height="30" as="geometry" />
        </mxCell>
        <mxCell id="_0cxiAFkDxXxnWQI2h8j-8" value="V" style="text;html=1;align=center;verticalAlign=middle;resizable=0;points=[];autosize=1;strokeColor=none;fillColor=none;" parent="1" vertex="1">
          <mxGeometry x="390" y="600" width="30" height="30" as="geometry" />
        </mxCell>
        <mxCell id="_0cxiAFkDxXxnWQI2h8j-9" value="V" style="text;html=1;align=center;verticalAlign=middle;resizable=0;points=[];autosize=1;strokeColor=none;fillColor=none;" parent="1" vertex="1">
          <mxGeometry x="470" y="520" width="30" height="30" as="geometry" />
        </mxCell>
        <mxCell id="_0cxiAFkDxXxnWQI2h8j-10" value="V" style="text;html=1;align=center;verticalAlign=middle;resizable=0;points=[];autosize=1;strokeColor=none;fillColor=none;" parent="1" vertex="1">
          <mxGeometry x="615" y="420" width="30" height="30" as="geometry" />
        </mxCell>
        <mxCell id="_0cxiAFkDxXxnWQI2h8j-11" value="F" style="text;html=1;align=center;verticalAlign=middle;resizable=0;points=[];autosize=1;strokeColor=none;fillColor=none;" parent="1" vertex="1">
          <mxGeometry x="355" y="528" width="30" height="30" as="geometry" />
        </mxCell>
        <mxCell id="_0cxiAFkDxXxnWQI2h8j-12" value="F" style="text;html=1;align=center;verticalAlign=middle;resizable=0;points=[];autosize=1;strokeColor=none;fillColor=none;" parent="1" vertex="1">
          <mxGeometry x="495" y="428" width="30" height="30" as="geometry" />
        </mxCell>
        <mxCell id="_0cxiAFkDxXxnWQI2h8j-15" value="" style="shape=note;whiteSpace=wrap;html=1;backgroundOutline=1;darkOpacity=0.05;fillColor=light-dark(#60A917,#2C8910);strokeColor=#2D7600;fontColor=#ffffff;" parent="1" vertex="1">
          <mxGeometry x="160" y="190" width="80" height="100" as="geometry" />
        </mxCell>
        <mxCell id="_0cxiAFkDxXxnWQI2h8j-13" value="F" style="text;html=1;align=center;verticalAlign=middle;resizable=0;points=[];autosize=1;strokeColor=none;fillColor=none;" parent="1" vertex="1">
          <mxGeometry x="285" y="598" width="30" height="30" as="geometry" />
        </mxCell>
        <mxCell id="_0cxiAFkDxXxnWQI2h8j-4" value="&lt;font style=&quot;font-size: 18px;&quot;&gt;FLUXOGRAMA MUTARE&lt;/font&gt;&lt;div&gt;&lt;font style=&quot;font-size: 18px;&quot;&gt;O IMPULSO PARA MUDAR&lt;/font&gt;&lt;/div&gt;" style="text;html=1;align=center;verticalAlign=middle;resizable=0;points=[];autosize=1;strokeColor=none;fillColor=none;" parent="1" vertex="1">
          <mxGeometry x="80" y="210" width="250" height="60" as="geometry" />
        </mxCell>
        <mxCell id="Tqs_XFMELXFWNRah4-Qo-2" value="" style="edgeStyle=orthogonalEdgeStyle;rounded=0;orthogonalLoop=1;jettySize=auto;html=1;" edge="1" parent="1" source="Tqs_XFMELXFWNRah4-Qo-1" target="7ZSRkaOjpOQk4Y71W81P-2">
          <mxGeometry relative="1" as="geometry" />
        </mxCell>
        <mxCell id="Tqs_XFMELXFWNRah4-Qo-1" value="Menu Pricnipal" style="ellipse;whiteSpace=wrap;html=1;" vertex="1" parent="1">
          <mxGeometry x="530" y="20" width="80" height="80" as="geometry" />
        </mxCell>
      </root>
    </mxGraphModel>
  </diagram>
</mxfile>
